<?xml version="1.0" encoding="UTF-8"?>
<svg xmlns="http://www.w3.org/2000/svg" xmlns:xlink="http://www.w3.org/1999/xlink"
     width="905" height="791" viewBox="0 0 905 791">
<defs>
</defs>
<rect x="0" y="0" width="905" height="791" fill="#2b2b2b" />
<text x="60.0" y="30.0" font-size="24.0" fill="#ffffff" font-family="'Helvetica Neue', Helvetica, Arial, sans-serif" font-weight="bold">nf-core/createtaxdb</text>
<rect x="22.0" y="85.0" width="300.0" height="110.0" rx="8" ry="8" fill="rgba(255, 255, 255, 0.06)" stroke="rgba(255, 255, 255, 0.2)" stroke-width="1.0" />
<circle cx="31.0" cy="72.0" r="9" fill="#333333" />
<text x="31.0" y="72.0" font-size="9" fill="#ffffff" font-family="'Helvetica Neue', Helvetica, Arial, sans-serif" font-weight="bold" text-anchor="middle" dominant-baseline="central">1</text>
<text x="45.0" y="72.0" font-size="13.0" fill="#aaaaaa" font-family="'Helvetica Neue', Helvetica, Arial, sans-serif" dominant-baseline="central">Input Processing</text>
<rect x="380.0" y="85.0" width="277.0" height="390.0" rx="8" ry="8" fill="rgba(255, 255, 255, 0.06)" stroke="rgba(255, 255, 255, 0.2)" stroke-width="1.0" />
<circle cx="389.0" cy="72.0" r="9" fill="#333333" />
<text x="389.0" y="72.0" font-size="9" fill="#ffffff" font-family="'Helvetica Neue', Helvetica, Arial, sans-serif" font-weight="bold" text-anchor="middle" dominant-baseline="central">2</text>
<text x="403.0" y="72.0" font-size="13.0" fill="#aaaaaa" font-family="'Helvetica Neue', Helvetica, Arial, sans-serif" dominant-baseline="central">DNA Classifiers</text>
<rect x="380.0" y="515.0" width="232.0" height="156.0" rx="8" ry="8" fill="rgba(255, 255, 255, 0.06)" stroke="rgba(255, 255, 255, 0.2)" stroke-width="1.0" />
<circle cx="389.0" cy="502.0" r="9" fill="#333333" />
<text x="389.0" y="502.0" font-size="9" fill="#ffffff" font-family="'Helvetica Neue', Helvetica, Arial, sans-serif" font-weight="bold" text-anchor="middle" dominant-baseline="central">3</text>
<text x="403.0" y="502.0" font-size="13.0" fill="#aaaaaa" font-family="'Helvetica Neue', Helvetica, Arial, sans-serif" dominant-baseline="central">AA Classifiers</text>
<rect x="737.0" y="85.0" width="108.0" height="70.0" rx="8" ry="8" fill="rgba(255, 255, 255, 0.06)" stroke="rgba(255, 255, 255, 0.2)" stroke-width="1.0" />
<circle cx="746.0" cy="72.0" r="9" fill="#333333" />
<text x="746.0" y="72.0" font-size="9" fill="#ffffff" font-family="'Helvetica Neue', Helvetica, Arial, sans-serif" font-weight="bold" text-anchor="middle" dominant-baseline="central">4</text>
<text x="760.0" y="72.0" font-size="13.0" fill="#aaaaaa" font-family="'Helvetica Neue', Helvetica, Arial, sans-serif" dominant-baseline="central">Output</text>
<path d="M466.0,633.0 L557.0,633.0 Q567.0,633.0,573.0,625.0 L591.0,601.0 Q597.0,593.0,607.0,593.0 L612.0,593.0" stroke="#d9aa00" stroke-width="3.0" fill="none" stroke-linecap="round" stroke-linejoin="round" />
<path d="M380.0,593.0 L385.0,593.0 Q395.0,593.0,401.0,585.0 L419.0,561.0 Q425.0,553.0,435.0,553.0 L466.0,553.0" stroke="#d9aa00" stroke-width="3.0" fill="none" stroke-linecap="round" stroke-linejoin="round" />
<path d="M380.0,593.0 L466.0,593.0" stroke="#d9aa00" stroke-width="3.0" stroke-linecap="round" />
<path d="M380.0,593.0 L385.0,593.0 Q395.0,593.0,401.0,601.0 L419.0,625.0 Q425.0,633.0,435.0,633.0 L466.0,633.0" stroke="#d9aa00" stroke-width="3.0" fill="none" stroke-linecap="round" stroke-linejoin="round" />
<path d="M466.0,593.0 L612.0,593.0" stroke="#d9aa00" stroke-width="3.0" stroke-linecap="round" />
<path d="M612.0,593.0 L669.0,593.0 Q715.0,593.0,715.0,547.0 L715.0,133.0 Q715.0,123.0,725.0,123.0 L737.0,123.0" stroke="#d9aa00" stroke-width="3.0" fill="none" stroke-linecap="round" stroke-linejoin="round" />
<path d="M612.0,593.0 L669.0,593.0 Q715.0,593.0,715.0,547.0 L715.0,133.0 Q715.0,123.0,725.0,123.0 L737.0,123.0" stroke="#d9aa00" stroke-width="3.0" fill="none" stroke-linecap="round" stroke-linejoin="round" />
<path d="M612.0,593.0 L669.0,593.0 Q715.0,593.0,715.0,547.0 L715.0,133.0 Q715.0,123.0,725.0,123.0 L737.0,123.0" stroke="#d9aa00" stroke-width="3.0" fill="none" stroke-linecap="round" stroke-linejoin="round" />
<path d="M466.0,553.0 L526.0,553.0" stroke="#d9aa00" stroke-width="3.0" stroke-linecap="round" />
<path d="M526.0,553.0 L557.0,553.0 Q567.0,553.0,573.0,561.0 L591.0,585.0 Q597.0,593.0,607.0,593.0 L612.0,593.0" stroke="#d9aa00" stroke-width="3.0" fill="none" stroke-linecap="round" stroke-linejoin="round" />
<path d="M466.0,440.0 L602.0,440.0 Q612.0,440.0,613.6803097432404,430.1421828396561 L640.3196902567596,273.8578171603439 Q642.0,264.0,652.0,264.0 L657.0,264.0" stroke="#004b86" stroke-width="3.0" fill="none" stroke-linecap="round" stroke-linejoin="round" />
<path d="M466.0,400.0 L602.0,400.0 Q612.0,400.0,614.1540965591116,390.2347622653607 L639.8459034408884,273.7652377346393 Q642.0,264.0,652.0,264.0 L657.0,264.0" stroke="#004b86" stroke-width="3.0" fill="none" stroke-linecap="round" stroke-linejoin="round" />
<path d="M466.0,360.0 L602.0,360.0 Q612.0,360.0,614.9827499313594,350.4552002196497 L639.0172500686406,273.5447997803503 Q642.0,264.0,652.0,264.0 L657.0,264.0" stroke="#004b86" stroke-width="3.0" fill="none" stroke-linecap="round" stroke-linejoin="round" />
<path d="M466.0,320.0 L602.0,320.0 Q612.0,320.0,616.7222141251542,311.18520029971216 L637.2777858748458,272.81479970028784 Q642.0,264.0,652.0,264.0 L657.0,264.0" stroke="#004b86" stroke-width="3.0" fill="none" stroke-linecap="round" stroke-linejoin="round" />
<path d="M466.0,280.0 L602.0,280.0 Q612.0,280.0,620.8235294117648,275.29411764705884 L633.1764705882352,268.70588235294116 Q642.0,264.0,652.0,264.0 L657.0,264.0" stroke="#004b86" stroke-width="3.0" fill="none" stroke-linecap="round" stroke-linejoin="round" />
<path d="M657.0,264.0 L669.0,264.0 Q706.0,264.0,706.0,227.0 L706.0,139.0 Q706.0,120.0,725.0,120.0 L737.0,120.0" stroke="#004b86" stroke-width="3.0" fill="none" stroke-linecap="round" stroke-linejoin="round" />
<path d="M657.0,264.0 L669.0,264.0 Q706.0,264.0,706.0,227.0 L706.0,139.0 Q706.0,120.0,725.0,120.0 L737.0,120.0" stroke="#004b86" stroke-width="3.0" fill="none" stroke-linecap="round" stroke-linejoin="round" />
<path d="M657.0,264.0 L669.0,264.0 Q706.0,264.0,706.0,227.0 L706.0,139.0 Q706.0,120.0,725.0,120.0 L737.0,120.0" stroke="#004b86" stroke-width="3.0" fill="none" stroke-linecap="round" stroke-linejoin="round" />
<path d="M657.0,264.0 L669.0,264.0 Q706.0,264.0,706.0,227.0 L706.0,139.0 Q706.0,120.0,725.0,120.0 L737.0,120.0" stroke="#004b86" stroke-width="3.0" fill="none" stroke-linecap="round" stroke-linejoin="round" />
<path d="M657.0,264.0 L669.0,264.0 Q706.0,264.0,706.0,227.0 L706.0,139.0 Q706.0,120.0,725.0,120.0 L737.0,120.0" stroke="#004b86" stroke-width="3.0" fill="none" stroke-linecap="round" stroke-linejoin="round" />
<path d="M657.0,264.0 L669.0,264.0 Q706.0,264.0,706.0,227.0 L706.0,139.0 Q706.0,120.0,725.0,120.0 L737.0,120.0" stroke="#004b86" stroke-width="3.0" fill="none" stroke-linecap="round" stroke-linejoin="round" />
<path d="M657.0,264.0 L669.0,264.0 Q706.0,264.0,706.0,227.0 L706.0,139.0 Q706.0,120.0,725.0,120.0 L737.0,120.0" stroke="#004b86" stroke-width="3.0" fill="none" stroke-linecap="round" stroke-linejoin="round" />
<path d="M657.0,264.0 L669.0,264.0 Q706.0,264.0,706.0,227.0 L706.0,139.0 Q706.0,120.0,725.0,120.0 L737.0,120.0" stroke="#004b86" stroke-width="3.0" fill="none" stroke-linecap="round" stroke-linejoin="round" />
<path d="M657.0,264.0 L669.0,264.0 Q706.0,264.0,706.0,227.0 L706.0,139.0 Q706.0,120.0,725.0,120.0 L737.0,120.0" stroke="#004b86" stroke-width="3.0" fill="none" stroke-linecap="round" stroke-linejoin="round" />
<path d="M657.0,264.0 L669.0,264.0 Q706.0,264.0,706.0,227.0 L706.0,139.0 Q706.0,120.0,725.0,120.0 L737.0,120.0" stroke="#004b86" stroke-width="3.0" fill="none" stroke-linecap="round" stroke-linejoin="round" />
<path d="M466.0,240.0 L602.0,240.0 Q612.0,240.0,619.8086880944303,246.24695047554425 L634.1913119055697,257.7530495244558 Q642.0,264.0,652.0,264.0 L657.0,264.0" stroke="#004b86" stroke-width="3.0" fill="none" stroke-linecap="round" stroke-linejoin="round" />
<path d="M466.0,200.0 L602.0,200.0 Q612.0,200.0,616.2443387623072,209.05458935958868 L637.7556612376928,254.94541064041132 Q642.0,264.0,652.0,264.0 L657.0,264.0" stroke="#004b86" stroke-width="3.0" fill="none" stroke-linecap="round" stroke-linejoin="round" />
<path d="M80.0,163.0 L182.5,163.0 Q192.5,163.0,198.5,155.0 L216.5,131.0 Q222.5,123.0,232.5,123.0 L236.0,123.0" stroke="#d9aa00" stroke-width="3.0" fill="none" stroke-linecap="round" stroke-linejoin="round" />
<path d="M466.0,160.0 L602.0,160.0 Q612.0,160.0,614.7716065130218,169.60823591180895 L639.2283934869782,254.39176408819105 Q642.0,264.0,652.0,264.0 L657.0,264.0" stroke="#004b86" stroke-width="3.0" fill="none" stroke-linecap="round" stroke-linejoin="round" />
<path d="M236.0,123.0 L322.0,123.0" stroke="#d9aa00" stroke-width="3.0" stroke-linecap="round" />
<path d="M236.0,123.0 L322.0,123.0" stroke="#d9aa00" stroke-width="3.0" stroke-linecap="round" />
<path d="M236.0,123.0 L322.0,123.0" stroke="#d9aa00" stroke-width="3.0" stroke-linecap="round" />
<path d="M737.0,123.0 L787.0,123.0" stroke="#d9aa00" stroke-width="3.0" stroke-linecap="round" />
<path d="M737.0,123.0 L787.0,123.0" stroke="#d9aa00" stroke-width="3.0" stroke-linecap="round" />
<path d="M737.0,123.0 L787.0,123.0" stroke="#d9aa00" stroke-width="3.0" stroke-linecap="round" />
<path d="M322.0,123.0 L332.0,123.0" stroke="#d9aa00" stroke-width="3.0" stroke-linecap="round" />
<path d="M332.0,123.0 L338.0,123.0 Q348.0,123.0,348.0,133.0 L348.0,577.0 Q348.0,593.0,364.0,593.0 L380.0,593.0" stroke="#d9aa00" stroke-width="3.0" fill="none" stroke-linecap="round" stroke-linejoin="round" />
<path d="M332.0,123.0 L338.0,123.0 Q348.0,123.0,348.0,133.0 L348.0,577.0 Q348.0,593.0,364.0,593.0 L380.0,593.0" stroke="#d9aa00" stroke-width="3.0" fill="none" stroke-linecap="round" stroke-linejoin="round" />
<path d="M332.0,123.0 L338.0,123.0 Q348.0,123.0,348.0,133.0 L348.0,577.0 Q348.0,593.0,364.0,593.0 L380.0,593.0" stroke="#d9aa00" stroke-width="3.0" fill="none" stroke-linecap="round" stroke-linejoin="round" />
<path d="M80.0,120.0 L140.0,120.0" stroke="#004b86" stroke-width="3.0" stroke-linecap="round" />
<path d="M140.0,120.0 L236.0,120.0" stroke="#004b86" stroke-width="3.0" stroke-linecap="round" />
<path d="M466.0,120.0 L571.0,120.0" stroke="#004b86" stroke-width="3.0" stroke-linecap="round" />
<path d="M236.0,120.0 L322.0,120.0" stroke="#004b86" stroke-width="3.0" stroke-linecap="round" />
<path d="M380.0,120.0 L466.0,120.0" stroke="#004b86" stroke-width="3.0" stroke-linecap="round" />
<path d="M236.0,120.0 L322.0,120.0" stroke="#004b86" stroke-width="3.0" stroke-linecap="round" />
<path d="M380.0,120.0 L385.0,120.0 Q395.0,120.0,401.0,128.0 L419.0,152.0 Q425.0,160.0,435.0,160.0 L466.0,160.0" stroke="#004b86" stroke-width="3.0" fill="none" stroke-linecap="round" stroke-linejoin="round" />
<path d="M236.0,120.0 L322.0,120.0" stroke="#004b86" stroke-width="3.0" stroke-linecap="round" />
<path d="M380.0,120.0 L385.0,120.0 Q395.0,120.0,398.5112344158839,129.36329177569044 L421.4887655841161,190.63670822430956 Q425.0,200.0,435.0,200.0 L466.0,200.0" stroke="#004b86" stroke-width="3.0" fill="none" stroke-linecap="round" stroke-linejoin="round" />
<path d="M236.0,120.0 L322.0,120.0" stroke="#004b86" stroke-width="3.0" stroke-linecap="round" />
<path d="M380.0,120.0 L385.0,120.0 Q395.0,120.0,397.42535625036334,129.70142500145332 L422.57464374963666,230.29857499854668 Q425.0,240.0,435.0,240.0 L466.0,240.0" stroke="#004b86" stroke-width="3.0" fill="none" stroke-linecap="round" stroke-linejoin="round" />
<path d="M236.0,120.0 L322.0,120.0" stroke="#004b86" stroke-width="3.0" stroke-linecap="round" />
<path d="M380.0,120.0 L385.0,120.0 Q395.0,120.0,396.84288535050183,129.8287218693432 L423.15711464949817,270.1712781306568 Q425.0,280.0,435.0,280.0 L466.0,280.0" stroke="#004b86" stroke-width="3.0" fill="none" stroke-linecap="round" stroke-linejoin="round" />
<path d="M236.0,120.0 L322.0,120.0" stroke="#004b86" stroke-width="3.0" stroke-linecap="round" />
<path d="M380.0,120.0 L385.0,120.0 Q395.0,120.0,396.48340452930245,129.88936352868296 L423.51659547069755,310.11063647131704 Q425.0,320.0,435.0,320.0 L466.0,320.0" stroke="#004b86" stroke-width="3.0" fill="none" stroke-linecap="round" stroke-linejoin="round" />
<path d="M236.0,120.0 L322.0,120.0" stroke="#004b86" stroke-width="3.0" stroke-linecap="round" />
<path d="M380.0,120.0 L385.0,120.0 Q395.0,120.0,396.2403473458921,129.92277876713666 L423.7596526541079,350.07722123286334 Q425.0,360.0,435.0,360.0 L466.0,360.0" stroke="#004b86" stroke-width="3.0" fill="none" stroke-linecap="round" stroke-linejoin="round" />
<path d="M236.0,120.0 L322.0,120.0" stroke="#004b86" stroke-width="3.0" stroke-linecap="round" />
<path d="M380.0,120.0 L385.0,120.0 Q395.0,120.0,396.0653312363427,129.9430915391981 L423.9346687636573,390.05690846080194 Q425.0,400.0,435.0,400.0 L466.0,400.0" stroke="#004b86" stroke-width="3.0" fill="none" stroke-linecap="round" stroke-linejoin="round" />
<path d="M236.0,120.0 L322.0,120.0" stroke="#004b86" stroke-width="3.0" stroke-linecap="round" />
<path d="M380.0,120.0 L385.0,120.0 Q395.0,120.0,395.9334070869306,129.9563422605929 L424.0665929130694,430.04365773940714 Q425.0,440.0,435.0,440.0 L466.0,440.0" stroke="#004b86" stroke-width="3.0" fill="none" stroke-linecap="round" stroke-linejoin="round" />
<path d="M466.0,120.0 L536.5,120.0 Q546.5,120.0,548.53954254112,129.78980419737604 L574.46045745888,254.21019580262396 Q576.5,264.0,586.5,264.0 L657.0,264.0" stroke="#004b86" stroke-width="3.0" fill="none" stroke-linecap="round" stroke-linejoin="round" />
<path d="M737.0,120.0 L787.0,120.0" stroke="#004b86" stroke-width="3.0" stroke-linecap="round" />
<path d="M571.0,120.0 L602.0,120.0 Q612.0,120.0,614.03954254112,129.78980419737604 L639.96045745888,254.21019580262396 Q642.0,264.0,652.0,264.0 L657.0,264.0" stroke="#004b86" stroke-width="3.0" fill="none" stroke-linecap="round" stroke-linejoin="round" />
<path d="M737.0,120.0 L787.0,120.0" stroke="#004b86" stroke-width="3.0" stroke-linecap="round" />
<path d="M737.0,120.0 L787.0,120.0" stroke="#004b86" stroke-width="3.0" stroke-linecap="round" />
<path d="M737.0,120.0 L787.0,120.0" stroke="#004b86" stroke-width="3.0" stroke-linecap="round" />
<path d="M737.0,120.0 L787.0,120.0" stroke="#004b86" stroke-width="3.0" stroke-linecap="round" />
<path d="M737.0,120.0 L787.0,120.0" stroke="#004b86" stroke-width="3.0" stroke-linecap="round" />
<path d="M737.0,120.0 L787.0,120.0" stroke="#004b86" stroke-width="3.0" stroke-linecap="round" />
<path d="M737.0,120.0 L787.0,120.0" stroke="#004b86" stroke-width="3.0" stroke-linecap="round" />
<path d="M737.0,120.0 L787.0,120.0" stroke="#004b86" stroke-width="3.0" stroke-linecap="round" />
<path d="M737.0,120.0 L787.0,120.0" stroke="#004b86" stroke-width="3.0" stroke-linecap="round" />
<path d="M322.0,120.0 L332.0,120.0" stroke="#004b86" stroke-width="3.0" stroke-linecap="round" />
<path d="M332.0,120.0 L380.0,120.0" stroke="#004b86" stroke-width="3.0" stroke-linecap="round" />
<path d="M332.0,120.0 L380.0,120.0" stroke="#004b86" stroke-width="3.0" stroke-linecap="round" />
<path d="M332.0,120.0 L380.0,120.0" stroke="#004b86" stroke-width="3.0" stroke-linecap="round" />
<path d="M332.0,120.0 L380.0,120.0" stroke="#004b86" stroke-width="3.0" stroke-linecap="round" />
<path d="M332.0,120.0 L380.0,120.0" stroke="#004b86" stroke-width="3.0" stroke-linecap="round" />
<path d="M332.0,120.0 L380.0,120.0" stroke="#004b86" stroke-width="3.0" stroke-linecap="round" />
<path d="M332.0,120.0 L380.0,120.0" stroke="#004b86" stroke-width="3.0" stroke-linecap="round" />
<path d="M332.0,120.0 L380.0,120.0" stroke="#004b86" stroke-width="3.0" stroke-linecap="round" />
<path d="M332.0,120.0 L380.0,120.0" stroke="#004b86" stroke-width="3.0" stroke-linecap="round" />
<rect x="75.0" y="115.0" width="10.0" height="10.0" rx="5.0" ry="5.0" fill="#ffffff" stroke="#333333" stroke-width="1.5" />
<path d="M43.0,104.0 L61.0,104.0 L69.0,112.0 L69.0,134.0 Q69.0,136.0,67.0,136.0 L43.0,136.0 Q41.0,136.0,41.0,134.0 L41.0,106.0 Q41.0,104.0,43.0,104.0 Z" fill="#ffffff" stroke="#333333" stroke-width="1.5" stroke-linejoin="round" />
<path d="M61.0,104.0 L61.0,112.0 L69.0,112.0 Z" fill="#333333" opacity="0.15" stroke="none" />
<path d="M61.0,104.0 L61.0,112.0 L69.0,112.0" fill="none" stroke="#333333" stroke-width="0.8999999999999999" />
<text x="55.0" y="121.2" font-size="9.0" fill="#000000" font-family="'Helvetica Neue', Helvetica, Arial, sans-serif" font-weight="bold" text-anchor="middle" dominant-baseline="central">.fna</text>
<rect x="75.0" y="158.0" width="10.0" height="10.0" rx="5.0" ry="5.0" fill="#ffffff" stroke="#333333" stroke-width="1.5" />
<path d="M43.0,147.0 L61.0,147.0 L69.0,155.0 L69.0,177.0 Q69.0,179.0,67.0,179.0 L43.0,179.0 Q41.0,179.0,41.0,177.0 L41.0,149.0 Q41.0,147.0,43.0,147.0 Z" fill="#ffffff" stroke="#333333" stroke-width="1.5" stroke-linejoin="round" />
<path d="M61.0,147.0 L61.0,155.0 L69.0,155.0 Z" fill="#333333" opacity="0.15" stroke="none" />
<path d="M61.0,147.0 L61.0,155.0 L69.0,155.0" fill="none" stroke="#333333" stroke-width="0.8999999999999999" />
<text x="55.0" y="164.2" font-size="9.0" fill="#000000" font-family="'Helvetica Neue', Helvetica, Arial, sans-serif" font-weight="bold" text-anchor="middle" dominant-baseline="central">.faa</text>
<rect x="135.0" y="115.0" width="10.0" height="10.0" rx="5.0" ry="5.0" fill="#ffffff" stroke="#333333" stroke-width="1.5" />
<rect x="231.0" y="115.0" width="10.0" height="13.0" rx="5.0" ry="5.0" fill="#ffffff" stroke="#333333" stroke-width="1.5" />
<rect x="461.0" y="115.0" width="10.0" height="10.0" rx="5.0" ry="5.0" fill="#ffffff" stroke="#333333" stroke-width="1.5" />
<rect x="566.0" y="115.0" width="10.0" height="10.0" rx="5.0" ry="5.0" fill="#ffffff" stroke="#333333" stroke-width="1.5" />
<rect x="461.0" y="155.0" width="10.0" height="10.0" rx="5.0" ry="5.0" fill="#ffffff" stroke="#333333" stroke-width="1.5" />
<rect x="461.0" y="195.0" width="10.0" height="10.0" rx="5.0" ry="5.0" fill="#ffffff" stroke="#333333" stroke-width="1.5" />
<rect x="461.0" y="235.0" width="10.0" height="10.0" rx="5.0" ry="5.0" fill="#ffffff" stroke="#333333" stroke-width="1.5" />
<rect x="461.0" y="275.0" width="10.0" height="10.0" rx="5.0" ry="5.0" fill="#ffffff" stroke="#333333" stroke-width="1.5" />
<rect x="461.0" y="315.0" width="10.0" height="10.0" rx="5.0" ry="5.0" fill="#ffffff" stroke="#333333" stroke-width="1.5" />
<rect x="461.0" y="355.0" width="10.0" height="10.0" rx="5.0" ry="5.0" fill="#ffffff" stroke="#333333" stroke-width="1.5" />
<rect x="461.0" y="395.0" width="10.0" height="10.0" rx="5.0" ry="5.0" fill="#ffffff" stroke="#333333" stroke-width="1.5" />
<rect x="461.0" y="435.0" width="10.0" height="10.0" rx="5.0" ry="5.0" fill="#ffffff" stroke="#333333" stroke-width="1.5" />
<rect x="461.0" y="548.0" width="10.0" height="10.0" rx="5.0" ry="5.0" fill="#ffffff" stroke="#333333" stroke-width="1.5" />
<rect x="521.0" y="548.0" width="10.0" height="10.0" rx="5.0" ry="5.0" fill="#ffffff" stroke="#333333" stroke-width="1.5" />
<rect x="461.0" y="588.0" width="10.0" height="10.0" rx="5.0" ry="5.0" fill="#ffffff" stroke="#333333" stroke-width="1.5" />
<rect x="461.0" y="628.0" width="10.0" height="10.0" rx="5.0" ry="5.0" fill="#ffffff" stroke="#333333" stroke-width="1.5" />
<rect x="782.0" y="115.0" width="10.0" height="13.0" rx="5.0" ry="5.0" fill="#ffffff" stroke="#333333" stroke-width="1.5" />
<path d="M800.0,105.5 L818.0,105.5 L826.0,113.5 L826.0,135.5 Q826.0,137.5,824.0,137.5 L800.0,137.5 Q798.0,137.5,798.0,135.5 L798.0,107.5 Q798.0,105.5,800.0,105.5 Z" fill="#ffffff" stroke="#333333" stroke-width="1.5" stroke-linejoin="round" />
<path d="M818.0,105.5 L818.0,113.5 L826.0,113.5 Z" fill="#333333" opacity="0.15" stroke="none" />
<path d="M818.0,105.5 L818.0,113.5 L826.0,113.5" fill="none" stroke="#333333" stroke-width="0.8999999999999999" />
<text x="812.0" y="122.7" font-size="9.0" fill="#000000" font-family="'Helvetica Neue', Helvetica, Arial, sans-serif" font-weight="bold" text-anchor="middle" dominant-baseline="central">db</text>
<text x="80.0" y="104.0" font-size="13.0" fill="#e0e0e0" font-family="'Helvetica Neue', Helvetica, Arial, sans-serif" font-weight="bold" text-anchor="middle" dominant-baseline="auto">.fna</text>
<text x="466.0" y="104.0" font-size="13.0" fill="#e0e0e0" font-family="'Helvetica Neue', Helvetica, Arial, sans-serif" font-weight="bold" text-anchor="middle" dominant-baseline="auto">Kraken2</text>
<text x="80.0" y="147.0" font-size="13.0" fill="#e0e0e0" font-family="'Helvetica Neue', Helvetica, Arial, sans-serif" font-weight="bold" text-anchor="middle" dominant-baseline="auto">.faa</text>
<text x="466.0" y="537.0" font-size="13.0" fill="#e0e0e0" font-family="'Helvetica Neue', Helvetica, Arial, sans-serif" font-weight="bold" text-anchor="middle" dominant-baseline="auto">SeqKit</text>
<text x="466.0" y="176.0" font-size="13.0" fill="#e0e0e0" font-family="'Helvetica Neue', Helvetica, Arial, sans-serif" font-weight="bold" text-anchor="middle" dominant-baseline="hanging">Centrifuge</text>
<text x="466.0" y="609.0" font-size="13.0" fill="#e0e0e0" font-family="'Helvetica Neue', Helvetica, Arial, sans-serif" font-weight="bold" text-anchor="middle" dominant-baseline="hanging">DIAMOND</text>
<text x="787.0" y="104.0" font-size="13.0" fill="#e0e0e0" font-family="'Helvetica Neue', Helvetica, Arial, sans-serif" font-weight="bold" text-anchor="middle" dominant-baseline="auto">db</text>
<text x="466.0" y="216.0" font-size="13.0" fill="#e0e0e0" font-family="'Helvetica Neue', Helvetica, Arial, sans-serif" font-weight="bold" text-anchor="middle" dominant-baseline="hanging">ganon</text>
<text x="466.0" y="649.0" font-size="13.0" fill="#e0e0e0" font-family="'Helvetica Neue', Helvetica, Arial, sans-serif" font-weight="bold" text-anchor="middle" dominant-baseline="hanging">sourmash</text>
<text x="466.0" y="256.0" font-size="13.0" fill="#e0e0e0" font-family="'Helvetica Neue', Helvetica, Arial, sans-serif" font-weight="bold" text-anchor="middle" dominant-baseline="hanging">KrakenUniq</text>
<text x="466.0" y="296.0" font-size="13.0" fill="#e0e0e0" font-family="'Helvetica Neue', Helvetica, Arial, sans-serif" font-weight="bold" text-anchor="middle" dominant-baseline="hanging">KMCP</text>
<text x="466.0" y="336.0" font-size="13.0" fill="#e0e0e0" font-family="'Helvetica Neue', Helvetica, Arial, sans-serif" font-weight="bold" text-anchor="middle" dominant-baseline="hanging">MetaCache</text>
<text x="466.0" y="376.0" font-size="13.0" fill="#e0e0e0" font-family="'Helvetica Neue', Helvetica, Arial, sans-serif" font-weight="bold" text-anchor="middle" dominant-baseline="hanging">MALT</text>
<text x="466.0" y="416.0" font-size="13.0" fill="#e0e0e0" font-family="'Helvetica Neue', Helvetica, Arial, sans-serif" font-weight="bold" text-anchor="middle" dominant-baseline="hanging">sourmash</text>
<text x="466.0" y="456.0" font-size="13.0" fill="#e0e0e0" font-family="'Helvetica Neue', Helvetica, Arial, sans-serif" font-weight="bold" text-anchor="middle" dominant-baseline="hanging">sylph</text>
<text x="140.0" y="104.0" font-size="13.0" fill="#e0e0e0" font-family="'Helvetica Neue', Helvetica, Arial, sans-serif" font-weight="bold" text-anchor="middle" dominant-baseline="auto">gunzip</text>
<text x="571.0" y="104.0" font-size="13.0" fill="#e0e0e0" font-family="'Helvetica Neue', Helvetica, Arial, sans-serif" font-weight="bold" text-anchor="middle" dominant-baseline="auto">Bracken</text>
<text x="526.0" y="537.0" font-size="13.0" fill="#e0e0e0" font-family="'Helvetica Neue', Helvetica, Arial, sans-serif" font-weight="bold" text-anchor="middle" dominant-baseline="auto">Kaiju</text>
<text x="236.0" y="104.0" font-size="13.0" fill="#e0e0e0" font-family="'Helvetica Neue', Helvetica, Arial, sans-serif" font-weight="bold" text-anchor="middle" dominant-baseline="auto">cat</text>
<rect x="22.0" y="695.0" width="194.4" height="72.0" rx="6" ry="6" fill="rgba(0, 0, 0, 0.3)" />
<path d="M34.0,719.0 L58.0,719.0" stroke="#004b86" stroke-width="3.0" stroke-linecap="round" />
<text x="70.0" y="719.0" font-size="14.0" fill="#e0e0e0" font-family="'Helvetica Neue', Helvetica, Arial, sans-serif" dominant-baseline="central">Nucleotide sequences</text>
<path d="M34.0,743.0 L58.0,743.0" stroke="#d9aa00" stroke-width="3.0" stroke-linecap="round" />
<text x="70.0" y="743.0" font-size="14.0" fill="#e0e0e0" font-family="'Helvetica Neue', Helvetica, Arial, sans-serif" dominant-baseline="central">Amino acid sequences</text>
<text x="875.0" y="783.0" font-size="8" fill="rgba(150, 150, 150, 0.6)" font-family="'Helvetica Neue', Helvetica, Arial, sans-serif" text-anchor="end">created with nf-metro v0.4.6</text>
</svg>
